<mxfile host="app.diagrams.net" agent="Mozilla/5.0 (Macintosh; Intel Mac OS X 10_15_7) AppleWebKit/537.36 (KHTML, like Gecko) Chrome/127.0.0.0 Safari/537.36" version="24.7.7">
  <diagram name="Page-1" id="gENwpSkCicR_bc_o7XbW">
    <mxGraphModel dx="954" dy="1609" grid="1" gridSize="10" guides="1" tooltips="1" connect="1" arrows="1" fold="1" page="1" pageScale="1" pageWidth="850" pageHeight="1100" math="0" shadow="0">
      <root>
        <mxCell id="0" />
        <mxCell id="1" parent="0" />
        <mxCell id="zlhUAVA8kaPQ_Od_jGPm-1" value="User message action decoder" style="rounded=0;whiteSpace=wrap;html=1;" vertex="1" parent="1">
          <mxGeometry x="360" y="-80" width="120" height="40" as="geometry" />
        </mxCell>
        <mxCell id="zlhUAVA8kaPQ_Od_jGPm-11" style="edgeStyle=orthogonalEdgeStyle;rounded=0;orthogonalLoop=1;jettySize=auto;html=1;exitX=0.5;exitY=1;exitDx=0;exitDy=0;" edge="1" parent="1" source="zlhUAVA8kaPQ_Od_jGPm-3" target="zlhUAVA8kaPQ_Od_jGPm-12">
          <mxGeometry relative="1" as="geometry">
            <mxPoint x="220" y="390" as="targetPoint" />
          </mxGeometry>
        </mxCell>
        <mxCell id="zlhUAVA8kaPQ_Od_jGPm-3" value="Ask user to upload insurance" style="rounded=1;whiteSpace=wrap;html=1;" vertex="1" parent="1">
          <mxGeometry x="160" y="160" width="120" height="40" as="geometry" />
        </mxCell>
        <mxCell id="zlhUAVA8kaPQ_Od_jGPm-6" value="system&lt;div&gt;Actions&lt;/div&gt;" style="ellipse;shape=cloud;whiteSpace=wrap;html=1;" vertex="1" parent="1">
          <mxGeometry x="20" y="140" width="120" height="80" as="geometry" />
        </mxCell>
        <mxCell id="zlhUAVA8kaPQ_Od_jGPm-13" style="edgeStyle=orthogonalEdgeStyle;rounded=0;orthogonalLoop=1;jettySize=auto;html=1;exitX=0.5;exitY=1;exitDx=0;exitDy=0;" edge="1" parent="1" source="zlhUAVA8kaPQ_Od_jGPm-7" target="zlhUAVA8kaPQ_Od_jGPm-14">
          <mxGeometry relative="1" as="geometry">
            <mxPoint x="380" y="400" as="targetPoint" />
          </mxGeometry>
        </mxCell>
        <mxCell id="zlhUAVA8kaPQ_Od_jGPm-7" value="process info for Insurance retrieval" style="rounded=1;whiteSpace=wrap;html=1;" vertex="1" parent="1">
          <mxGeometry x="320" y="160" width="120" height="40" as="geometry" />
        </mxCell>
        <mxCell id="zlhUAVA8kaPQ_Od_jGPm-8" value="process info for Insurance retrieval" style="rounded=1;whiteSpace=wrap;html=1;" vertex="1" parent="1">
          <mxGeometry x="480" y="160" width="120" height="40" as="geometry" />
        </mxCell>
        <mxCell id="zlhUAVA8kaPQ_Od_jGPm-9" value="&lt;div style=&quot;&quot;&gt;1. Disease Info&lt;/div&gt;&lt;div style=&quot;&quot;&gt;2. Preference Info&lt;/div&gt;&lt;div style=&quot;&quot;&gt;&lt;br&gt;&lt;/div&gt;" style="shape=cylinder3;whiteSpace=wrap;html=1;boundedLbl=1;backgroundOutline=1;size=15;" vertex="1" parent="1">
          <mxGeometry x="350" y="20" width="60" height="130" as="geometry" />
        </mxCell>
        <mxCell id="zlhUAVA8kaPQ_Od_jGPm-12" value="Question answer Flow" style="ellipse;whiteSpace=wrap;html=1;" vertex="1" parent="1">
          <mxGeometry x="160" y="390" width="120" height="80" as="geometry" />
        </mxCell>
        <mxCell id="zlhUAVA8kaPQ_Od_jGPm-14" value="Give user a list of Insurance to select" style="ellipse;whiteSpace=wrap;html=1;" vertex="1" parent="1">
          <mxGeometry x="320" y="390" width="120" height="80" as="geometry" />
        </mxCell>
      </root>
    </mxGraphModel>
  </diagram>
</mxfile>
